<?xml version="1.0" encoding="iso-8859-1"?>
<!-- Generator: Adobe Illustrator 19.1.0, SVG Export Plug-In . SVG Version: 6.00 Build 0)  -->
<svg xmlns="http://www.w3.org/2000/svg" xmlns:xlink="http://www.w3.org/1999/xlink" version="1.1" id="Capa_1" x="0px" y="0px" viewBox="0 0 297.646 297.646" style="enable-background:new 0 0 297.646 297.646;" xml:space="preserve" width="512px" height="512px">
<g>
	<g>
		<path d="M293.823,0h-16.689H20.513H3.823v15h16.69v156.607h256.621V15h16.689V0z M262.134,156.607H35.513V15h226.621V156.607z" fill="#D80027"/>
		<path d="M95.967,143.894c24.316,0,44.099-19.782,44.099-44.099v-7.5h-36.599V55.697h-7.5c-24.316,0-44.098,19.782-44.098,44.098    C51.869,124.111,71.651,143.894,95.967,143.894z M88.467,71.677v35.618h35.619c-3.316,12.422-14.667,21.599-28.119,21.599    c-16.045,0-29.098-13.054-29.098-29.099C66.869,86.343,76.045,74.993,88.467,71.677z" fill="#D80027"/>
		<path d="M163.134,76.728c0-24.316-19.782-44.099-44.098-44.099h-7.5v51.599h51.598V76.728z M126.536,69.228v-20.62    c10.028,2.678,17.941,10.591,20.619,20.619L126.536,69.228L126.536,69.228z" fill="#D80027"/>
		<rect x="174.235" y="26.388" width="69.837" height="15" fill="#D80027"/>
		<rect x="174.235" y="58.888" width="69.837" height="15" fill="#D80027"/>
		<rect x="174.235" y="91.388" width="69.837" height="15" fill="#D80027"/>
		<rect x="174.235" y="123.888" width="69.837" height="15" fill="#D80027"/>
		<polygon points="184.656,199.516 184.656,184.516 112.99,184.516 112.99,199.516 137.867,199.516 67.566,288.338 79.328,297.646     141.323,219.319 141.323,291.536 156.323,291.536 156.323,217.869 218.814,296.97 230.584,287.671 160.94,199.516   " fill="#D80027"/>
	</g>
	<g>
	</g>
	<g>
	</g>
	<g>
	</g>
	<g>
	</g>
	<g>
	</g>
	<g>
	</g>
	<g>
	</g>
	<g>
	</g>
	<g>
	</g>
	<g>
	</g>
	<g>
	</g>
	<g>
	</g>
	<g>
	</g>
	<g>
	</g>
	<g>
	</g>
</g>
<g>
</g>
<g>
</g>
<g>
</g>
<g>
</g>
<g>
</g>
<g>
</g>
<g>
</g>
<g>
</g>
<g>
</g>
<g>
</g>
<g>
</g>
<g>
</g>
<g>
</g>
<g>
</g>
<g>
</g>
</svg>
